<mxfile host="Electron" modified="2024-02-17T15:50:40.178Z" agent="Mozilla/5.0 (Macintosh; Intel Mac OS X 10_15_7) AppleWebKit/537.36 (KHTML, like Gecko) draw.io/23.1.5 Chrome/120.0.6099.109 Electron/28.1.0 Safari/537.36" etag="WPNBYApDqyIcCW6UppfF" version="23.1.5" type="device">
  <diagram name="Page-1" id="xNpq8GAA5SBL1xSXnTV1">
    <mxGraphModel dx="1485" dy="1039" grid="1" gridSize="10" guides="1" tooltips="1" connect="1" arrows="1" fold="1" page="1" pageScale="1" pageWidth="827" pageHeight="1169" math="0" shadow="0">
      <root>
        <mxCell id="0" />
        <mxCell id="1" parent="0" />
        <mxCell id="3x-zwTTTAf054b0kWz35-46" value="" style="group" parent="1" vertex="1" connectable="0">
          <mxGeometry x="690" y="150" width="590" height="455" as="geometry" />
        </mxCell>
        <mxCell id="3x-zwTTTAf054b0kWz35-24" value="Application" style="swimlane;whiteSpace=wrap;html=1;fillColor=#fff2cc;strokeColor=#d6b656;" parent="3x-zwTTTAf054b0kWz35-46" vertex="1">
          <mxGeometry width="590" height="100" as="geometry">
            <mxRectangle x="1410" y="95" width="110" height="30" as="alternateBounds" />
          </mxGeometry>
        </mxCell>
        <mxCell id="3x-zwTTTAf054b0kWz35-27" value="Database Server" style="rounded=0;whiteSpace=wrap;html=1;fillColor=#fff2cc;strokeColor=#d6b656;" parent="3x-zwTTTAf054b0kWz35-24" vertex="1">
          <mxGeometry x="440" y="40" width="120" height="40" as="geometry" />
        </mxCell>
        <mxCell id="3x-zwTTTAf054b0kWz35-26" value="Application Server" style="rounded=0;whiteSpace=wrap;html=1;fillColor=#fff2cc;strokeColor=#d6b656;" parent="3x-zwTTTAf054b0kWz35-24" vertex="1">
          <mxGeometry x="260" y="40" width="120" height="40" as="geometry" />
        </mxCell>
        <mxCell id="3x-zwTTTAf054b0kWz35-25" value="Web App" style="rounded=0;whiteSpace=wrap;html=1;fillColor=#fff2cc;strokeColor=#d6b656;" parent="3x-zwTTTAf054b0kWz35-24" vertex="1">
          <mxGeometry x="90" y="40" width="120" height="40" as="geometry" />
        </mxCell>
        <mxCell id="3x-zwTTTAf054b0kWz35-28" value="Management" style="swimlane;whiteSpace=wrap;html=1;fillColor=#ffe6cc;strokeColor=#d79b00;" parent="3x-zwTTTAf054b0kWz35-46" vertex="1">
          <mxGeometry y="100" width="150" height="255" as="geometry" />
        </mxCell>
        <mxCell id="3x-zwTTTAf054b0kWz35-31" value="Device&lt;br&gt;&amp;nbsp;Management" style="rounded=0;whiteSpace=wrap;html=1;fillColor=#ffe6cc;strokeColor=#d79b00;" parent="3x-zwTTTAf054b0kWz35-28" vertex="1">
          <mxGeometry x="15" y="180" width="120" height="60" as="geometry" />
        </mxCell>
        <mxCell id="3x-zwTTTAf054b0kWz35-29" value="Application Management" style="rounded=0;whiteSpace=wrap;html=1;fillColor=#ffe6cc;strokeColor=#d79b00;" parent="3x-zwTTTAf054b0kWz35-28" vertex="1">
          <mxGeometry x="15" y="35" width="120" height="60" as="geometry" />
        </mxCell>
        <mxCell id="3x-zwTTTAf054b0kWz35-30" value="Database Management" style="rounded=0;whiteSpace=wrap;html=1;fillColor=#ffe6cc;strokeColor=#d79b00;" parent="3x-zwTTTAf054b0kWz35-28" vertex="1">
          <mxGeometry x="15" y="110" width="120" height="60" as="geometry" />
        </mxCell>
        <mxCell id="3x-zwTTTAf054b0kWz35-32" value="Services" style="swimlane;whiteSpace=wrap;html=1;fillColor=#dae8fc;strokeColor=#6c8ebf;" parent="3x-zwTTTAf054b0kWz35-46" vertex="1">
          <mxGeometry x="150" y="100" width="290" height="105" as="geometry" />
        </mxCell>
        <mxCell id="3x-zwTTTAf054b0kWz35-34" value="Web Services" style="rounded=0;whiteSpace=wrap;html=1;fillColor=#dae8fc;strokeColor=#6c8ebf;" parent="3x-zwTTTAf054b0kWz35-32" vertex="1">
          <mxGeometry x="150" y="45" width="100" height="40" as="geometry" />
        </mxCell>
        <mxCell id="3x-zwTTTAf054b0kWz35-33" value="Native Services" style="rounded=0;whiteSpace=wrap;html=1;fillColor=#dae8fc;strokeColor=#6c8ebf;" parent="3x-zwTTTAf054b0kWz35-46" vertex="1">
          <mxGeometry x="180" y="145" width="100" height="40" as="geometry" />
        </mxCell>
        <mxCell id="3x-zwTTTAf054b0kWz35-35" value="Security" style="swimlane;whiteSpace=wrap;html=1;fillColor=#f8cecc;strokeColor=#b85450;" parent="3x-zwTTTAf054b0kWz35-46" vertex="1">
          <mxGeometry x="440" y="100" width="150" height="255" as="geometry" />
        </mxCell>
        <mxCell id="3x-zwTTTAf054b0kWz35-36" value="Authentication" style="rounded=0;whiteSpace=wrap;html=1;fillColor=#f8cecc;strokeColor=#b85450;" parent="3x-zwTTTAf054b0kWz35-35" vertex="1">
          <mxGeometry x="10" y="40" width="120" height="40" as="geometry" />
        </mxCell>
        <mxCell id="3x-zwTTTAf054b0kWz35-37" value="Authorization" style="rounded=0;whiteSpace=wrap;html=1;fillColor=#f8cecc;strokeColor=#b85450;" parent="3x-zwTTTAf054b0kWz35-46" vertex="1">
          <mxGeometry x="450" y="205" width="120" height="40" as="geometry" />
        </mxCell>
        <mxCell id="3x-zwTTTAf054b0kWz35-38" value="Communication" style="swimlane;whiteSpace=wrap;html=1;fillColor=#d5e8d4;strokeColor=#82b366;" parent="3x-zwTTTAf054b0kWz35-46" vertex="1">
          <mxGeometry x="150" y="225" width="290" height="120" as="geometry" />
        </mxCell>
        <mxCell id="3x-zwTTTAf054b0kWz35-39" value="Communication Protocols" style="rounded=0;whiteSpace=wrap;html=1;fillColor=#d5e8d4;strokeColor=#82b366;" parent="3x-zwTTTAf054b0kWz35-38" vertex="1">
          <mxGeometry x="160" y="50" width="100" height="40" as="geometry" />
        </mxCell>
        <mxCell id="3x-zwTTTAf054b0kWz35-40" value="Communication APIs" style="rounded=0;whiteSpace=wrap;html=1;fillColor=#dae8fc;strokeColor=#6c8ebf;" parent="3x-zwTTTAf054b0kWz35-38" vertex="1">
          <mxGeometry x="20" y="50" width="100" height="40" as="geometry" />
        </mxCell>
        <mxCell id="3x-zwTTTAf054b0kWz35-41" value="Device" style="swimlane;whiteSpace=wrap;html=1;fillColor=#f5f5f5;fontColor=#333333;strokeColor=#666666;" parent="3x-zwTTTAf054b0kWz35-46" vertex="1">
          <mxGeometry y="355" width="590" height="100" as="geometry">
            <mxRectangle x="1440" y="455" width="80" height="30" as="alternateBounds" />
          </mxGeometry>
        </mxCell>
        <mxCell id="3x-zwTTTAf054b0kWz35-42" value="Sensor" style="rounded=0;whiteSpace=wrap;html=1;fillColor=#f5f5f5;fontColor=#333333;strokeColor=#666666;" parent="3x-zwTTTAf054b0kWz35-41" vertex="1">
          <mxGeometry x="60" y="40" width="120" height="40" as="geometry" />
        </mxCell>
        <mxCell id="3x-zwTTTAf054b0kWz35-43" value="Actuators" style="rounded=0;whiteSpace=wrap;html=1;fillColor=#f5f5f5;fontColor=#333333;strokeColor=#666666;" parent="3x-zwTTTAf054b0kWz35-41" vertex="1">
          <mxGeometry x="235" y="40" width="120" height="40" as="geometry" />
        </mxCell>
        <mxCell id="3x-zwTTTAf054b0kWz35-44" value="Computing devices" style="rounded=0;whiteSpace=wrap;html=1;fillColor=#f5f5f5;fontColor=#333333;strokeColor=#666666;" parent="3x-zwTTTAf054b0kWz35-41" vertex="1">
          <mxGeometry x="430" y="40" width="120" height="40" as="geometry" />
        </mxCell>
        <mxCell id="3x-zwTTTAf054b0kWz35-48" value="" style="group" parent="1" vertex="1" connectable="0">
          <mxGeometry x="85" y="119" width="385" height="500" as="geometry" />
        </mxCell>
        <mxCell id="3x-zwTTTAf054b0kWz35-3" value="App" style="rounded=0;whiteSpace=wrap;html=1;fillColor=#f8cecc;strokeColor=#b85450;" parent="3x-zwTTTAf054b0kWz35-48" vertex="1">
          <mxGeometry x="221.94117647058823" y="70" width="108.70588235294117" height="40" as="geometry" />
        </mxCell>
        <mxCell id="3x-zwTTTAf054b0kWz35-4" value="REST Communication" style="text;html=1;align=center;verticalAlign=middle;whiteSpace=wrap;rounded=0;" parent="3x-zwTTTAf054b0kWz35-48" vertex="1">
          <mxGeometry x="298.035294117647" y="150" width="54.35294117647059" height="30" as="geometry" />
        </mxCell>
        <mxCell id="3x-zwTTTAf054b0kWz35-5" value="REST Communication" style="rounded=0;whiteSpace=wrap;html=1;fillColor=#d5e8d4;strokeColor=#82b366;" parent="3x-zwTTTAf054b0kWz35-48" vertex="1">
          <mxGeometry x="221.94117647058823" y="200" width="108.70588235294117" height="40" as="geometry" />
        </mxCell>
        <mxCell id="3x-zwTTTAf054b0kWz35-16" style="edgeStyle=orthogonalEdgeStyle;rounded=0;orthogonalLoop=1;jettySize=auto;html=1;exitX=0.5;exitY=1;exitDx=0;exitDy=0;entryX=0.5;entryY=0;entryDx=0;entryDy=0;startArrow=classic;startFill=1;" parent="3x-zwTTTAf054b0kWz35-48" source="3x-zwTTTAf054b0kWz35-3" target="3x-zwTTTAf054b0kWz35-5" edge="1">
          <mxGeometry relative="1" as="geometry" />
        </mxCell>
        <mxCell id="3x-zwTTTAf054b0kWz35-6" value="Database" style="strokeWidth=2;html=1;shape=mxgraph.flowchart.database;whiteSpace=wrap;fillColor=#f5f5f5;fontColor=#333333;strokeColor=#666666;" parent="3x-zwTTTAf054b0kWz35-48" vertex="1">
          <mxGeometry x="235.52941176470588" y="280" width="81.52941176470588" height="50" as="geometry" />
        </mxCell>
        <mxCell id="3x-zwTTTAf054b0kWz35-7" value="Cloud Storage &amp;amp; Analysis" style="ellipse;shape=cloud;whiteSpace=wrap;html=1;fillColor=#dae8fc;strokeColor=#6c8ebf;" parent="3x-zwTTTAf054b0kWz35-48" vertex="1">
          <mxGeometry x="242.77647058823527" y="368" width="124.10588235294115" height="100" as="geometry" />
        </mxCell>
        <mxCell id="3x-zwTTTAf054b0kWz35-8" value="" style="ellipse;whiteSpace=wrap;html=1;aspect=fixed;fillColor=#fff2cc;strokeColor=#d6b656;" parent="3x-zwTTTAf054b0kWz35-48" vertex="1">
          <mxGeometry x="77" y="390" width="45.29411764705882" height="45.29411764705882" as="geometry" />
        </mxCell>
        <mxCell id="3x-zwTTTAf054b0kWz35-9" value="Controller Service" style="rounded=0;whiteSpace=wrap;html=1;fillColor=#ffe6cc;strokeColor=#d79b00;" parent="3x-zwTTTAf054b0kWz35-48" vertex="1">
          <mxGeometry x="40.76470588235294" y="200" width="99.6470588235294" height="40" as="geometry" />
        </mxCell>
        <mxCell id="3x-zwTTTAf054b0kWz35-10" value="Resource" style="rounded=0;whiteSpace=wrap;html=1;fillColor=#dae8fc;strokeColor=#6c8ebf;" parent="3x-zwTTTAf054b0kWz35-48" vertex="1">
          <mxGeometry x="40.76470588235294" y="270" width="99.6470588235294" height="40" as="geometry" />
        </mxCell>
        <mxCell id="3x-zwTTTAf054b0kWz35-18" style="edgeStyle=orthogonalEdgeStyle;rounded=0;orthogonalLoop=1;jettySize=auto;html=1;exitX=0;exitY=0.5;exitDx=0;exitDy=0;entryX=1;entryY=0.5;entryDx=0;entryDy=0;startArrow=classic;startFill=1;" parent="3x-zwTTTAf054b0kWz35-48" source="3x-zwTTTAf054b0kWz35-5" target="3x-zwTTTAf054b0kWz35-9" edge="1">
          <mxGeometry relative="1" as="geometry" />
        </mxCell>
        <mxCell id="3x-zwTTTAf054b0kWz35-11" value="Device" style="rounded=0;whiteSpace=wrap;html=1;fillColor=#f8cecc;strokeColor=#b85450;" parent="3x-zwTTTAf054b0kWz35-48" vertex="1">
          <mxGeometry x="40.76470588235294" y="330" width="99.6470588235294" height="40" as="geometry" />
        </mxCell>
        <mxCell id="3x-zwTTTAf054b0kWz35-12" value="Monitoring Node" style="text;html=1;align=center;verticalAlign=middle;whiteSpace=wrap;rounded=0;" parent="3x-zwTTTAf054b0kWz35-48" vertex="1">
          <mxGeometry x="49.8235294117647" y="435" width="90.58823529411764" height="30" as="geometry" />
        </mxCell>
        <mxCell id="3x-zwTTTAf054b0kWz35-13" value="REST Communication" style="text;html=1;align=center;verticalAlign=middle;whiteSpace=wrap;rounded=0;" parent="3x-zwTTTAf054b0kWz35-48" vertex="1">
          <mxGeometry x="144.94117647058823" y="170" width="90.58823529411764" height="30" as="geometry" />
        </mxCell>
        <mxCell id="3x-zwTTTAf054b0kWz35-14" value="Local" style="text;html=1;align=center;verticalAlign=middle;whiteSpace=wrap;rounded=0;" parent="3x-zwTTTAf054b0kWz35-48" vertex="1">
          <mxGeometry x="49.8235294117647" y="10" width="90.58823529411764" height="30" as="geometry" />
        </mxCell>
        <mxCell id="3x-zwTTTAf054b0kWz35-15" value="Cloud" style="text;html=1;align=center;verticalAlign=middle;whiteSpace=wrap;rounded=0;" parent="3x-zwTTTAf054b0kWz35-48" vertex="1">
          <mxGeometry x="226.47058823529412" y="10" width="90.58823529411764" height="30" as="geometry" />
        </mxCell>
        <mxCell id="3x-zwTTTAf054b0kWz35-19" style="edgeStyle=orthogonalEdgeStyle;rounded=0;orthogonalLoop=1;jettySize=auto;html=1;exitX=0.5;exitY=1;exitDx=0;exitDy=0;entryX=0.5;entryY=0;entryDx=0;entryDy=0;startArrow=classic;startFill=1;" parent="3x-zwTTTAf054b0kWz35-48" source="3x-zwTTTAf054b0kWz35-9" target="3x-zwTTTAf054b0kWz35-10" edge="1">
          <mxGeometry relative="1" as="geometry" />
        </mxCell>
        <mxCell id="3x-zwTTTAf054b0kWz35-17" style="edgeStyle=orthogonalEdgeStyle;rounded=0;orthogonalLoop=1;jettySize=auto;html=1;exitX=0.5;exitY=1;exitDx=0;exitDy=0;entryX=0.5;entryY=0;entryDx=0;entryDy=0;entryPerimeter=0;startArrow=classic;startFill=1;" parent="3x-zwTTTAf054b0kWz35-48" source="3x-zwTTTAf054b0kWz35-5" target="3x-zwTTTAf054b0kWz35-6" edge="1">
          <mxGeometry relative="1" as="geometry" />
        </mxCell>
        <mxCell id="3x-zwTTTAf054b0kWz35-20" style="edgeStyle=orthogonalEdgeStyle;rounded=0;orthogonalLoop=1;jettySize=auto;html=1;exitX=0.5;exitY=1;exitDx=0;exitDy=0;entryX=0.5;entryY=0;entryDx=0;entryDy=0;startArrow=classic;startFill=1;" parent="3x-zwTTTAf054b0kWz35-48" source="3x-zwTTTAf054b0kWz35-10" target="3x-zwTTTAf054b0kWz35-11" edge="1">
          <mxGeometry relative="1" as="geometry" />
        </mxCell>
        <mxCell id="3x-zwTTTAf054b0kWz35-21" style="edgeStyle=orthogonalEdgeStyle;rounded=0;orthogonalLoop=1;jettySize=auto;html=1;exitX=1;exitY=0.5;exitDx=0;exitDy=0;entryX=0.124;entryY=0.449;entryDx=0;entryDy=0;entryPerimeter=0;" parent="3x-zwTTTAf054b0kWz35-48" source="3x-zwTTTAf054b0kWz35-8" target="3x-zwTTTAf054b0kWz35-7" edge="1">
          <mxGeometry relative="1" as="geometry" />
        </mxCell>
        <mxCell id="3x-zwTTTAf054b0kWz35-22" value="" style="endArrow=none;dashed=1;html=1;rounded=0;shadow=1;endSize=12;jumpSize=3;startSize=12;" parent="3x-zwTTTAf054b0kWz35-48" edge="1">
          <mxGeometry width="50" height="50" relative="1" as="geometry">
            <mxPoint x="176.6470588235294" y="370" as="sourcePoint" />
            <mxPoint x="181.17647058823528" y="25" as="targetPoint" />
          </mxGeometry>
        </mxCell>
        <mxCell id="3x-zwTTTAf054b0kWz35-47" value="" style="swimlane;startSize=0;" parent="3x-zwTTTAf054b0kWz35-48" vertex="1">
          <mxGeometry width="385" height="500" as="geometry">
            <mxRectangle x="85" y="120" width="50" height="40" as="alternateBounds" />
          </mxGeometry>
        </mxCell>
        <mxCell id="wf16NI0p6czDjmVIpWcF-1" value="" style="rounded=0;whiteSpace=wrap;html=1;" vertex="1" parent="1">
          <mxGeometry x="90" y="640" width="1190" height="210" as="geometry" />
        </mxCell>
        <mxCell id="wf16NI0p6czDjmVIpWcF-2" value="" style="rounded=0;whiteSpace=wrap;html=1;fillColor=#EAEDED;fontSize=22;fontColor=#FFFFFF;strokeColor=none;labelBackgroundColor=none;" vertex="1" parent="1">
          <mxGeometry x="1780" y="140" width="539" height="598" as="geometry" />
        </mxCell>
        <mxCell id="wf16NI0p6czDjmVIpWcF-3" value="&lt;font style=&quot;font-size: 14px;&quot;&gt;Client Side&lt;span style=&quot;color: rgb(55, 65, 81); font-family: Söhne, ui-sans-serif, system-ui, -apple-system, &amp;quot;Segoe UI&amp;quot;, Roboto, Ubuntu, Cantarell, &amp;quot;Noto Sans&amp;quot;, sans-serif, &amp;quot;Helvetica Neue&amp;quot;, Arial, &amp;quot;Apple Color Emoji&amp;quot;, &amp;quot;Segoe UI Emoji&amp;quot;, &amp;quot;Segoe UI Symbol&amp;quot;, &amp;quot;Noto Color Emoji&amp;quot;;&quot;&gt;: This area represents the user interface of the system where end-users (patients, caregivers, healthcare professionals) interact with the application. This can include web browsers, mobile apps, or other client applications. The client side communicates with the cloud-native services to perform operations such as viewing medication schedules, receiving reminders, or inputting prescription information.&lt;/span&gt;&lt;/font&gt;" style="text;html=1;align=left;verticalAlign=top;spacingTop=-4;fontSize=14;labelBackgroundColor=none;whiteSpace=wrap;" vertex="1" parent="1">
          <mxGeometry x="1849.5" y="151" width="449" height="118" as="geometry" />
        </mxCell>
        <mxCell id="wf16NI0p6czDjmVIpWcF-4" value="&lt;font style=&quot;font-size: 14px;&quot;&gt;API Gateway&lt;span style=&quot;color: rgb(55, 65, 81); font-family: Söhne, ui-sans-serif, system-ui, -apple-system, &amp;quot;Segoe UI&amp;quot;, Roboto, Ubuntu, Cantarell, &amp;quot;Noto Sans&amp;quot;, sans-serif, &amp;quot;Helvetica Neue&amp;quot;, Arial, &amp;quot;Apple Color Emoji&amp;quot;, &amp;quot;Segoe UI Emoji&amp;quot;, &amp;quot;Segoe UI Symbol&amp;quot;, &amp;quot;Noto Color Emoji&amp;quot;;&quot;&gt;: The API Gateway acts as the entry point for all client requests. It routes incoming API calls to the appropriate microservices and acts as a reverse proxy to retrieve data from these services. It is the interface between the client side and the server-side components of the application, providing a centralized routing mechanism.&lt;/span&gt;&lt;/font&gt;" style="text;html=1;align=left;verticalAlign=top;spacingTop=-4;fontSize=14;labelBackgroundColor=none;whiteSpace=wrap;" vertex="1" parent="1">
          <mxGeometry x="1848.5" y="274" width="450" height="115" as="geometry" />
        </mxCell>
        <mxCell id="wf16NI0p6czDjmVIpWcF-5" value="&lt;font style=&quot;font-size: 12px;&quot;&gt;Orchestration Service&lt;span style=&quot;color: rgb(55, 65, 81); font-family: Söhne, ui-sans-serif, system-ui, -apple-system, &amp;quot;Segoe UI&amp;quot;, Roboto, Ubuntu, Cantarell, &amp;quot;Noto Sans&amp;quot;, sans-serif, &amp;quot;Helvetica Neue&amp;quot;, Arial, &amp;quot;Apple Color Emoji&amp;quot;, &amp;quot;Segoe UI Emoji&amp;quot;, &amp;quot;Segoe UI Symbol&amp;quot;, &amp;quot;Noto Color Emoji&amp;quot;; font-size: 12px;&quot;&gt;: Within the cloud-native environment, an orchestration service like Kubernetes manages the deployment, scaling, and operations of the application containers. It automates the management of microservices, ensuring they are running and healthy, and facilitates the dynamic scaling of the system based on demand.&lt;/span&gt;&lt;/font&gt;" style="text;html=1;align=left;verticalAlign=top;spacingTop=-4;fontSize=12;labelBackgroundColor=none;whiteSpace=wrap;" vertex="1" parent="1">
          <mxGeometry x="600" y="650" width="200" height="180" as="geometry" />
        </mxCell>
        <mxCell id="wf16NI0p6czDjmVIpWcF-6" value="&lt;font style=&quot;font-size: 14px;&quot;&gt;Database&lt;span style=&quot;color: rgb(55, 65, 81); font-family: Söhne, ui-sans-serif, system-ui, -apple-system, &amp;quot;Segoe UI&amp;quot;, Roboto, Ubuntu, Cantarell, &amp;quot;Noto Sans&amp;quot;, sans-serif, &amp;quot;Helvetica Neue&amp;quot;, Arial, &amp;quot;Apple Color Emoji&amp;quot;, &amp;quot;Segoe UI Emoji&amp;quot;, &amp;quot;Segoe UI Symbol&amp;quot;, &amp;quot;Noto Color Emoji&amp;quot;;&quot;&gt;: This is the persistent storage component that holds all the data related to the application, such as user profiles, medication schedules, prescription details, and logs. Microservices interact with the database to retrieve and store information as needed.&lt;/span&gt;&lt;/font&gt;" style="text;html=1;align=left;verticalAlign=top;spacingTop=-4;fontSize=14;labelBackgroundColor=none;whiteSpace=wrap;" vertex="1" parent="1">
          <mxGeometry x="1848.5" y="508" width="450" height="80" as="geometry" />
        </mxCell>
        <mxCell id="wf16NI0p6czDjmVIpWcF-7" value="Medicine Boxes&lt;span style=&quot;color: rgb(55, 65, 81); font-family: Söhne, ui-sans-serif, system-ui, -apple-system, &amp;quot;Segoe UI&amp;quot;, Roboto, Ubuntu, Cantarell, &amp;quot;Noto Sans&amp;quot;, sans-serif, &amp;quot;Helvetica Neue&amp;quot;, Arial, &amp;quot;Apple Color Emoji&amp;quot;, &amp;quot;Segoe UI Emoji&amp;quot;, &amp;quot;Segoe UI Symbol&amp;quot;, &amp;quot;Noto Color Emoji&amp;quot;; font-size: 12px;&quot;&gt;: These represent the hardware components of the system, which are the smart medication boxes equipped with sensors and actuators. They are connected to the cloud-native services and perform actions such as locking/unlocking compartments, sounding reminders, and sending status updates back to the server.&lt;/span&gt;" style="text;html=1;align=left;verticalAlign=top;spacingTop=-4;fontSize=12;labelBackgroundColor=none;whiteSpace=wrap;" vertex="1" parent="1">
          <mxGeometry x="1037" y="654.5" width="203.5" height="190" as="geometry" />
        </mxCell>
        <mxCell id="wf16NI0p6czDjmVIpWcF-8" value="1" style="ellipse;whiteSpace=wrap;html=1;aspect=fixed;fillColor=#4D9900;strokeColor=none;labelBackgroundColor=none;" vertex="1" parent="1">
          <mxGeometry x="1800" y="157.5" width="23" height="23" as="geometry" />
        </mxCell>
        <mxCell id="wf16NI0p6czDjmVIpWcF-9" value="2" style="ellipse;whiteSpace=wrap;html=1;aspect=fixed;fillColor=#4D9900;strokeColor=none;labelBackgroundColor=none;" vertex="1" parent="1">
          <mxGeometry x="1800" y="278.5" width="23" height="23" as="geometry" />
        </mxCell>
        <mxCell id="wf16NI0p6czDjmVIpWcF-10" value="3" style="ellipse;whiteSpace=wrap;html=1;aspect=fixed;fillColor=#4D9900;strokeColor=none;labelBackgroundColor=none;" vertex="1" parent="1">
          <mxGeometry x="570" y="654.5" width="23" height="23" as="geometry" />
        </mxCell>
        <mxCell id="wf16NI0p6czDjmVIpWcF-11" value="4" style="ellipse;whiteSpace=wrap;html=1;aspect=fixed;fillColor=#4D9900;strokeColor=none;labelBackgroundColor=none;" vertex="1" parent="1">
          <mxGeometry x="1799.9999999999995" y="516.5" width="23" height="23" as="geometry" />
        </mxCell>
        <mxCell id="wf16NI0p6czDjmVIpWcF-12" value="5" style="ellipse;whiteSpace=wrap;html=1;aspect=fixed;fillColor=#4D9900;strokeColor=none;labelBackgroundColor=none;" vertex="1" parent="1">
          <mxGeometry x="996.9999999999995" y="654.5" width="23" height="23" as="geometry" />
        </mxCell>
        <mxCell id="wf16NI0p6czDjmVIpWcF-13" value="&lt;font style=&quot;font-size: 12px;&quot;&gt;Client Side&lt;span style=&quot;color: rgb(55, 65, 81); font-family: Söhne, ui-sans-serif, system-ui, -apple-system, &amp;quot;Segoe UI&amp;quot;, Roboto, Ubuntu, Cantarell, &amp;quot;Noto Sans&amp;quot;, sans-serif, &amp;quot;Helvetica Neue&amp;quot;, Arial, &amp;quot;Apple Color Emoji&amp;quot;, &amp;quot;Segoe UI Emoji&amp;quot;, &amp;quot;Segoe UI Symbol&amp;quot;, &amp;quot;Noto Color Emoji&amp;quot;; font-size: 12px;&quot;&gt;: This area represents the user interface of the system where end-users (patients, caregivers, healthcare professionals) interact with the application. This can include web browsers, mobile apps, or other client applications. The client side communicates with the cloud-native services to perform operations such as viewing medication schedules, receiving reminders, or inputting prescription information.&lt;/span&gt;&lt;/font&gt;" style="text;html=1;align=left;verticalAlign=top;spacingTop=-4;fontSize=12;labelBackgroundColor=none;textDirection=ltr;whiteSpace=wrap;labelBorderColor=none;" vertex="1" parent="1">
          <mxGeometry x="129.5" y="650" width="210.5" height="190" as="geometry" />
        </mxCell>
        <mxCell id="wf16NI0p6czDjmVIpWcF-14" value="1" style="ellipse;whiteSpace=wrap;html=1;aspect=fixed;fillColor=#4D9900;strokeColor=none;labelBackgroundColor=none;" vertex="1" parent="1">
          <mxGeometry x="100" y="654.5" width="23" height="23" as="geometry" />
        </mxCell>
        <mxCell id="wf16NI0p6czDjmVIpWcF-15" value="&lt;font style=&quot;font-size: 12px;&quot;&gt;API Gateway&lt;span style=&quot;color: rgb(55, 65, 81); font-family: Söhne, ui-sans-serif, system-ui, -apple-system, &amp;quot;Segoe UI&amp;quot;, Roboto, Ubuntu, Cantarell, &amp;quot;Noto Sans&amp;quot;, sans-serif, &amp;quot;Helvetica Neue&amp;quot;, Arial, &amp;quot;Apple Color Emoji&amp;quot;, &amp;quot;Segoe UI Emoji&amp;quot;, &amp;quot;Segoe UI Symbol&amp;quot;, &amp;quot;Noto Color Emoji&amp;quot;; font-size: 12px;&quot;&gt;: The API Gateway acts as the entry point for all client requests. It routes incoming API calls to the appropriate microservices and acts as a reverse proxy to retrieve data from these services. It is the interface between the client side and the server-side components of the application, providing a centralized routing mechanism.&lt;/span&gt;&lt;/font&gt;" style="text;html=1;align=left;verticalAlign=top;spacingTop=-4;fontSize=12;labelBackgroundColor=none;whiteSpace=wrap;" vertex="1" parent="1">
          <mxGeometry x="370" y="654.5" width="190" height="170" as="geometry" />
        </mxCell>
        <mxCell id="wf16NI0p6czDjmVIpWcF-16" value="2" style="ellipse;whiteSpace=wrap;html=1;aspect=fixed;fillColor=#4D9900;strokeColor=none;labelBackgroundColor=none;" vertex="1" parent="1">
          <mxGeometry x="340" y="654.5" width="23" height="23" as="geometry" />
        </mxCell>
        <mxCell id="wf16NI0p6czDjmVIpWcF-17" value="&lt;font style=&quot;font-size: 12px;&quot;&gt;Database&lt;span style=&quot;color: rgb(55, 65, 81); font-family: Söhne, ui-sans-serif, system-ui, -apple-system, &amp;quot;Segoe UI&amp;quot;, Roboto, Ubuntu, Cantarell, &amp;quot;Noto Sans&amp;quot;, sans-serif, &amp;quot;Helvetica Neue&amp;quot;, Arial, &amp;quot;Apple Color Emoji&amp;quot;, &amp;quot;Segoe UI Emoji&amp;quot;, &amp;quot;Segoe UI Symbol&amp;quot;, &amp;quot;Noto Color Emoji&amp;quot;; font-size: 12px;&quot;&gt;: This is the persistent storage component that holds all the data related to the application, such as user profiles, medication schedules, prescription details, and logs. Microservices interact with the database to retrieve and store information as needed.&lt;/span&gt;&lt;/font&gt;" style="text;html=1;align=left;verticalAlign=top;spacingTop=-4;fontSize=12;labelBackgroundColor=none;whiteSpace=wrap;" vertex="1" parent="1">
          <mxGeometry x="820" y="650" width="177" height="165.5" as="geometry" />
        </mxCell>
        <mxCell id="wf16NI0p6czDjmVIpWcF-18" value="4" style="ellipse;whiteSpace=wrap;html=1;aspect=fixed;fillColor=#4D9900;strokeColor=none;labelBackgroundColor=none;" vertex="1" parent="1">
          <mxGeometry x="789.9999999999995" y="654.5" width="23" height="23" as="geometry" />
        </mxCell>
      </root>
    </mxGraphModel>
  </diagram>
</mxfile>
